<svg width="100.5" height="50" viewBox="0 0 473.5 89.9" xmlns="http://www.w3.org/2000/svg"><g id="svgGroup" stroke-linecap="round" fill-rule="nonzero" font-size="9pt" stroke="#ff8552" stroke-width="1.2mm" fill="#e9d758" style="stroke:#ff8552;stroke-width:1.2mm;fill:#e9d758"><path d="M 321.1 8 A 29.203 29.203 0 0 1 321.105 8.022 Q 321.401 9.409 321.5 10.55 Q 321.6 11.7 321.6 12.85 L 321.6 15.3 L 321.6 22.05 L 321.6 31.85 L 321.6 43.2 L 321.6 54.6 L 321.6 64.55 L 321.6 71.4 A 23.762 23.762 0 0 0 321.601 71.587 Q 321.612 72.984 321.788 74.227 A 14.388 14.388 0 0 0 322.4 76.85 Q 323.2 79.2 325.3 80.8 A 9.906 9.906 0 0 0 326.585 81.625 Q 327.55 82.148 328.745 82.555 A 21.117 21.117 0 0 0 331.1 83.2 A 29.223 29.223 0 0 0 333.477 83.605 Q 336.495 84 340.5 84 A 465.994 465.994 0 0 0 342.436 83.996 Q 345.291 83.984 347.853 83.937 A 266.128 266.128 0 0 0 352.85 83.8 A 193.02 193.02 0 0 0 356.764 83.615 A 157.536 157.536 0 0 0 362.85 83.15 Q 367.5 82.7 372.3 82 L 372.5 77.4 A 210.478 210.478 0 0 1 371.255 77.62 A 189.676 189.676 0 0 1 362.8 78.9 A 131.71 131.71 0 0 1 361.023 79.114 A 147.498 147.498 0 0 1 353 79.8 Q 347.9 80.1 341.6 80.1 A 82.535 82.535 0 0 1 340.408 80.092 Q 334.966 80.013 331.85 79.2 A 13.126 13.126 0 0 1 330.635 78.822 Q 328.148 77.908 327.05 76.2 A 7.225 7.225 0 0 1 326.301 74.624 Q 325.7 72.868 325.7 70.4 L 325.7 63.95 L 325.7 54.25 L 325.7 43 L 325.7 31.75 L 325.7 21.95 L 325.7 15.3 Q 325.7 13.4 325.8 11.75 Q 325.856 10.822 325.976 9.751 A 57.627 57.627 0 0 1 326.2 8 L 321.1 8 Z M 372.9 23.9 L 375.8 26.2 A 7.56 7.56 0 0 0 375.513 26.585 Q 375.228 26.992 374.9 27.55 A 41.008 41.008 0 0 1 374.539 28.152 Q 374.25 28.625 374 29 Q 372.2 32.1 370 35.7 A 398.32 398.32 0 0 1 366.531 41.269 A 457.695 457.695 0 0 1 365.3 43.2 Q 362.8 47.1 359.85 50.85 Q 356.9 54.6 353.6 58.1 L 349.9 55.8 A 66.494 66.494 0 0 0 355.396 50.031 A 78.618 78.618 0 0 0 357.8 47.05 Q 361.6 42.1 364.6 37.25 A 168.044 168.044 0 0 0 366.338 34.38 Q 368.072 31.447 369.165 29.27 A 50.436 50.436 0 0 0 369.2 29.2 A 0.749 0.749 0 0 0 369.123 29.211 Q 368.675 29.288 365.7 29.9 Q 362.659 30.526 357.857 31.512 A 35030.498 35030.498 0 0 1 356.7 31.75 A 2914.485 2914.485 0 0 1 350.787 32.958 Q 347.663 33.592 344.204 34.289 A 14392.127 14392.127 0 0 1 344.15 34.3 Q 337.2 35.7 330 37.15 Q 322.8 38.6 316.15 39.9 A 1118.516 1118.516 0 0 0 311.395 40.84 Q 309.51 41.217 307.786 41.569 A 641.293 641.293 0 0 0 304.5 42.25 Q 299.5 43.3 297 43.8 L 296.2 39.3 Q 298.191 39.07 301.5 38.518 A 266.655 266.655 0 0 0 303.65 38.15 Q 308.5 37.3 314.75 36.1 Q 321 34.9 327.9 33.55 Q 334.8 32.2 341.5 30.85 Q 348.2 29.5 353.95 28.3 Q 357.903 27.475 361.005 26.839 A 1149.096 1149.096 0 0 1 363.65 26.3 Q 367.6 25.5 369 25.2 Q 370.2 25 371.3 24.6 A 20.221 20.221 0 0 0 371.812 24.406 Q 372.344 24.197 372.687 24.018 A 3.978 3.978 0 0 0 372.9 23.9 Z M 48 7.1 L 53.2 7.1 Q 53 8.9 52.85 10.55 Q 52.7 12.2 52.7 14 Q 52.7 15.566 52.742 19.251 A 1623.755 1623.755 0 0 0 52.75 19.9 A 1474.863 1474.863 0 0 0 52.795 23.289 Q 52.816 24.801 52.842 26.479 A 2861.481 2861.481 0 0 0 52.9 30 Q 53 35.9 53.05 42.55 Q 53.1 49.2 53.2 55.95 Q 53.3 62.7 53.35 68.7 A 974.191 974.191 0 0 0 53.395 72.975 Q 53.416 74.663 53.442 76.194 A 529.115 529.115 0 0 0 53.5 79.1 Q 53.5 82.4 51.55 83.95 Q 50 85.182 47.407 85.435 A 14.521 14.521 0 0 1 46 85.5 A 124.775 124.775 0 0 1 43.009 85.462 Q 41.474 85.425 39.761 85.352 A 220.736 220.736 0 0 1 38.6 85.3 Q 34.4 85.1 31 84.9 L 30.8 80.4 Q 34.5 81.1 38.45 81.4 A 115.288 115.288 0 0 0 41.744 81.605 Q 43.253 81.676 44.611 81.694 A 67.846 67.846 0 0 0 45.5 81.7 Q 47.8 81.7 48.6 80.7 Q 49.4 79.7 49.4 77.8 Q 49.4 74.1 49.35 68.5 Q 49.3 62.9 49.25 56.25 L 49.15 42.95 Q 49.1 36.3 49 30.3 Q 48.931 26.175 48.886 22.854 A 1463.281 1463.281 0 0 1 48.85 20 A 364.308 364.308 0 0 0 48.822 18.027 Q 48.775 15.278 48.7 14 Q 48.605 11.519 48.418 9.994 A 21.872 21.872 0 0 0 48.4 9.85 Q 48.2 8.3 48 7.1 Z M 401.9 53.9 L 399.7 49.9 Q 412.3 46.4 423.7 41.2 Q 435.1 36 443.3 30.8 A 127.035 127.035 0 0 0 452.139 24.715 A 114.518 114.518 0 0 0 453.4 23.75 Q 458.1 20.1 462.3 16.1 Q 466.5 12.1 470.1 7.7 L 473.5 10.9 Q 469.5 15.2 465 19.25 Q 460.5 23.3 455.45 27.1 Q 450.4 30.9 444.5 34.7 Q 439.2 38.1 432.4 41.55 A 180.09 180.09 0 0 1 421.873 46.455 A 208.619 208.619 0 0 1 417.8 48.15 Q 410 51.3 401.9 53.9 Z M 98.6 42 L 98.6 37.5 Q 100.6 37.6 102.45 37.7 A 65.776 65.776 0 0 0 104.404 37.775 Q 105.446 37.8 106.6 37.8 L 111.65 37.8 L 121.05 37.8 L 133.05 37.8 L 145.95 37.8 L 157.95 37.8 L 167.25 37.8 L 172 37.8 A 57.452 57.452 0 0 0 174.078 37.761 A 68.65 68.65 0 0 0 175.4 37.7 Q 177.2 37.6 178.8 37.5 L 178.8 42 A 58.762 58.762 0 0 0 177.489 41.922 Q 176.815 41.889 176.061 41.865 A 104.686 104.686 0 0 0 175.55 41.85 Q 173.7 41.8 172 41.8 L 167.25 41.8 L 157.95 41.8 L 145.95 41.8 L 133.05 41.8 L 121.05 41.8 L 111.65 41.8 L 106.6 41.8 L 102.5 41.8 A 37.211 37.211 0 0 0 100.38 41.863 A 47.181 47.181 0 0 0 98.6 42 Z M 138.5 39.2 A 189.285 189.285 0 0 1 138.327 45.427 A 156.711 156.711 0 0 1 137.6 55.15 Q 136.8 62.6 133 68.8 A 30.311 30.311 0 0 1 130.001 73.058 A 37.365 37.365 0 0 1 124.95 78 Q 119.8 82.2 113.6 84.9 L 117.5 87.9 Q 121.6 85.8 125.3 82.95 A 61.407 61.407 0 0 0 125.874 82.503 A 55.558 55.558 0 0 0 132 76.9 A 42.869 42.869 0 0 0 134.414 74.1 A 33.428 33.428 0 0 0 136.9 70.5 Q 140.3 64.2 141.4 56.25 A 110.751 110.751 0 0 0 142.07 50.126 A 133.734 133.734 0 0 0 142.5 39.2 L 138.5 39.2 Z M 267.2 30.7 L 271.5 32.1 Q 271.2 32.9 270.95 33.7 A 102.168 102.168 0 0 1 270.77 34.272 Q 270.697 34.498 270.63 34.705 A 58.669 58.669 0 0 1 270.5 35.1 Q 268.5 43.8 265.05 51.95 Q 261.6 60.1 256 67.1 A 69.595 69.595 0 0 1 243.987 78.805 A 63.365 63.365 0 0 1 240.6 81.2 A 99.395 99.395 0 0 1 231.71 86.444 A 76.83 76.83 0 0 1 224.1 89.9 L 220.6 86.4 Q 226.6 84.5 232.4 81.4 Q 238.2 78.3 243.35 74.1 Q 248.5 69.9 252.6 64.9 A 68.379 68.379 0 0 0 258.248 56.63 A 77.105 77.105 0 0 0 259.2 54.95 Q 262.2 49.5 264.2 43.35 Q 266.2 37.2 267.2 30.7 Z M 2.2 29.9 L 2.2 25.2 Q 3.961 25.43 5.37 25.542 A 39.904 39.904 0 0 0 6.2 25.6 Q 7.9 25.7 10 25.7 L 14.3 25.7 L 22.85 25.7 L 34.05 25.7 L 46.15 25.7 L 57.5 25.7 L 66.45 25.7 L 71.2 25.7 A 41.606 41.606 0 0 0 72.696 25.671 Q 73.719 25.634 74.9 25.55 Q 76.779 25.416 78.017 25.242 A 22.186 22.186 0 0 0 78.3 25.2 L 78.3 29.9 Q 77.137 29.811 75.374 29.721 A 217.478 217.478 0 0 0 74.95 29.7 Q 72.9 29.6 71.2 29.6 L 66.5 29.6 L 57.6 29.6 L 46.25 29.6 L 34.1 29.6 L 22.85 29.6 L 14.3 29.6 L 10 29.6 A 179.58 179.58 0 0 0 8.366 29.607 Q 7.724 29.613 7.145 29.624 A 93.461 93.461 0 0 0 6.05 29.65 A 49.087 49.087 0 0 0 4.735 29.709 Q 4.155 29.742 3.521 29.79 A 86.758 86.758 0 0 0 2.2 29.9 Z M 3 74.6 L 0 71.2 Q 7.9 67.3 15.4 61.95 A 144.505 144.505 0 0 0 27.645 52.205 A 131.443 131.443 0 0 0 29.25 50.75 A 150.71 150.71 0 0 0 36.262 43.874 A 120.621 120.621 0 0 0 40.45 39.25 Q 44.4 34.648 46.99 30.677 A 51.576 51.576 0 0 0 48.1 28.9 L 50.1 28.8 L 50.2 32.4 A 55.002 55.002 0 0 1 47.668 36.221 Q 45.57 39.134 42.75 42.4 Q 38 47.9 31.7 53.8 A 148.574 148.574 0 0 1 18.508 64.762 A 161.874 161.874 0 0 1 18.05 65.1 Q 10.7 70.5 3 74.6 Z M 442.1 77.2 L 442.1 33.1 L 446.3 31.1 L 446.3 77.2 Q 446.3 78.7 446.35 80.45 Q 446.4 82.2 446.5 83.65 Q 446.582 84.845 446.665 85.599 A 19.751 19.751 0 0 0 446.7 85.9 L 441.7 85.9 Q 441.8 85.1 441.9 83.65 Q 442 82.2 442.05 80.45 Q 442.1 78.7 442.1 77.2 Z M 110.8 17.4 L 110.8 12.7 Q 112.7 12.8 114.45 12.95 A 38.118 38.118 0 0 0 116.087 13.053 Q 116.926 13.088 117.864 13.097 A 67.031 67.031 0 0 0 118.5 13.1 L 123.75 13.1 L 132 13.1 L 141.2 13.1 L 149.4 13.1 L 154.6 13.1 A 77.255 77.255 0 0 0 156.449 13.077 Q 157.49 13.052 158.65 13 Q 160.9 12.9 162.8 12.7 L 162.8 17.4 Q 160.9 17.2 158.65 17.1 A 109.183 109.183 0 0 0 156.576 17.027 Q 155.594 17.002 154.716 17 A 65.748 65.748 0 0 0 154.6 17 L 149.4 17 L 141.2 17 L 132.05 17 L 123.85 17 L 118.7 17 A 99.09 99.09 0 0 0 116.56 17.022 Q 115.409 17.047 114.4 17.1 A 58.947 58.947 0 0 0 111.882 17.285 A 50.26 50.26 0 0 0 110.8 17.4 Z M 208.8 34.2 Q 209.4 35.3 210.65 38.1 A 104.204 104.204 0 0 1 211.928 41.094 A 143.555 143.555 0 0 1 213.25 44.45 Q 214.6 48 215.8 51.25 Q 217 54.5 217.6 56.4 L 221.5 54.9 Q 220.8 53.1 219.55 49.9 Q 218.3 46.7 216.9 43.25 Q 215.5 39.8 214.35 36.85 A 91.075 91.075 0 0 0 213.823 35.528 Q 213.032 33.588 212.5 32.6 L 208.8 34.2 Z M 232 29.1 A 44.642 44.642 0 0 1 232.353 29.877 Q 232.97 31.268 233.85 33.45 Q 235 36.3 236.2 39.65 Q 237.4 43 238.35 45.95 A 79.373 79.373 0 0 1 238.744 47.207 Q 239.367 49.259 239.6 50.5 L 243.4 49 Q 243 47.5 242 44.55 Q 241 41.6 239.8 38.3 Q 238.6 35 237.55 32.05 Q 236.795 29.93 236.221 28.61 A 18.986 18.986 0 0 0 235.8 27.7 L 232 29.1 Z M 174.5 1.5 A 58.992 58.992 0 0 1 176.734 4.55 A 80.994 80.994 0 0 1 179 8.05 A 108.146 108.146 0 0 1 180.77 11.039 A 86.938 86.938 0 0 1 183 15.2 L 186.3 13.6 A 36.55 36.55 0 0 0 186.008 13.029 Q 185.082 11.255 183.75 9.15 L 180.65 4.25 Q 179.1 1.8 177.7 0 L 174.5 1.5 Z M 164.2 5.1 Q 165.45 6.85 166.856 9.069 A 136.08 136.08 0 0 1 168.6 11.9 Q 171 15.9 172.4 18.9 L 175.7 17.3 Q 174.7 15.1 173.2 12.6 Q 171.7 10.1 170.2 7.7 Q 169.356 6.35 168.576 5.221 A 42.045 42.045 0 0 0 167.4 3.6 L 164.2 5.1 Z" vector-effect="non-scaling-stroke"/></g></svg>